<svg width="461" height="497" viewBox="0 0 461 497" fill="none" xmlns="http://www.w3.org/2000/svg">
<g id="Frame 1">
<rect width="461" height="497" fill="white"/>
<g id="key-svgrepo-com 1" clip-path="url(#clip0_0_1)">
<path id="Vector" d="M92 248C91.994 232.696 97.0398 217.817 106.354 205.674C115.669 193.531 128.731 184.801 143.514 180.841C158.297 176.88 173.974 177.91 188.112 183.77C202.25 189.63 214.058 199.993 221.704 213.25H335.25C336.392 213.248 337.522 213.471 338.578 213.906C339.633 214.342 340.592 214.981 341.401 215.787L367.463 241.849C368.272 242.656 368.914 243.615 369.352 244.67C369.79 245.726 370.016 246.857 370.016 248C370.016 249.143 369.79 250.274 369.352 251.33C368.914 252.385 368.272 253.344 367.463 254.151L341.401 280.213C340.594 281.022 339.635 281.664 338.58 282.102C337.524 282.54 336.393 282.766 335.25 282.766C334.107 282.766 332.976 282.54 331.92 282.102C330.865 281.664 329.906 281.022 329.099 280.213L317.875 268.972L306.651 280.213C305.844 281.022 304.885 281.664 303.83 282.102C302.774 282.54 301.643 282.766 300.5 282.766C299.357 282.766 298.226 282.54 297.17 282.102C296.115 281.664 295.156 281.022 294.349 280.213L283.125 268.972L271.901 280.213C271.094 281.022 270.135 281.664 269.08 282.102C268.024 282.54 266.893 282.766 265.75 282.766C264.607 282.766 263.476 282.54 262.42 282.102C261.365 281.664 260.406 281.022 259.599 280.213L248.375 268.972L237.151 280.213C236.342 281.019 235.383 281.659 234.328 282.094C233.272 282.529 232.142 282.752 231 282.75H221.704C214.058 296.007 202.25 306.37 188.112 312.23C173.974 318.09 158.297 319.12 143.514 315.159C128.731 311.199 115.669 302.469 106.354 290.326C97.0398 278.183 91.994 263.304 92 248ZM161.5 195.875C152.172 195.879 143.016 198.385 134.987 203.133C126.958 207.881 120.35 214.697 115.853 222.869C111.356 231.042 109.134 240.271 109.419 249.594C109.704 258.918 112.487 267.994 117.475 275.876C122.464 283.758 129.476 290.157 137.78 294.405C146.085 298.654 155.377 300.596 164.687 300.029C173.998 299.462 182.986 296.407 190.714 291.182C198.441 285.958 204.626 278.756 208.621 270.327C209.326 268.846 210.437 267.595 211.823 266.718C213.21 265.842 214.817 265.376 216.457 265.375H227.403L242.224 250.537C243.031 249.728 243.99 249.086 245.045 248.648C246.101 248.21 247.232 247.984 248.375 247.984C249.518 247.984 250.649 248.21 251.705 248.648C252.76 249.086 253.719 249.728 254.526 250.537L265.75 261.778L276.974 250.537C277.781 249.728 278.74 249.086 279.795 248.648C280.851 248.21 281.982 247.984 283.125 247.984C284.268 247.984 285.399 248.21 286.455 248.648C287.51 249.086 288.469 249.728 289.276 250.537L300.5 261.778L311.724 250.537C312.531 249.728 313.49 249.086 314.545 248.648C315.601 248.21 316.732 247.984 317.875 247.984C319.018 247.984 320.149 248.21 321.205 248.648C322.26 249.086 323.219 249.728 324.026 250.537L335.25 261.778L349.028 248L331.653 230.625H216.457C214.817 230.624 213.21 230.158 211.823 229.282C210.437 228.405 209.326 227.154 208.621 225.673C204.394 216.755 197.721 209.22 189.379 203.945C181.038 198.67 171.37 195.871 161.5 195.875Z" fill="black"/>
<path id="Vector_2" d="M161.5 248C161.5 252.608 159.669 257.028 156.411 260.286C153.153 263.544 148.733 265.375 144.125 265.375C139.517 265.375 135.097 263.544 131.839 260.286C128.581 257.028 126.75 252.608 126.75 248C126.75 243.392 128.581 238.972 131.839 235.714C135.097 232.456 139.517 230.625 144.125 230.625C148.733 230.625 153.153 232.456 156.411 235.714C159.669 238.972 161.5 243.392 161.5 248Z" fill="black"/>
</g>
</g>
<defs>
<clipPath id="clip0_0_1">
<rect width="278" height="278" fill="white" transform="translate(92 109)"/>
</clipPath>
</defs>
</svg>
